<svg width="101" height="28" viewBox="0 0 101 28" fill="none" xmlns="http://www.w3.org/2000/svg">
<path fill-rule="evenodd" clip-rule="evenodd" d="M41.3907 10.8783C39.7273 10.8761 38.8941 12.1909 38.8913 14.2551C38.8886 16.3193 39.7445 17.5846 41.4076 17.5869C43.071 17.5891 43.9043 16.3 43.9073 14.2361C43.9098 12.1976 43.054 10.8805 41.3907 10.8783ZM41.3256 20.6315C37.6871 20.6268 34.9093 18.3523 34.915 14.2754C34.9205 10.1988 37.8344 7.85443 41.4991 7.85963C45.1633 7.86433 47.889 10.1906 47.8835 14.2155C47.878 18.2407 44.938 20.6367 41.3256 20.6315Z" fill="#04070D"/>
<path fill-rule="evenodd" clip-rule="evenodd" d="M64.7798 13.3444C64.7818 11.8564 64.151 11.3505 63.1248 11.3492C62.3093 11.348 61.6513 11.7191 61.1507 12.1437L61.1497 12.8612L61.1393 20.6211L57.0881 20.6152L57.0979 13.334C57.0999 11.8457 56.4426 11.34 55.4169 11.3385C54.6012 11.3375 53.9431 11.6553 53.4425 12.08L53.4309 20.6104L49.3799 20.6048L49.3965 8.10023L53.4481 8.09819L53.4458 9.68815C54.526 8.54704 55.7369 7.85784 57.3416 7.85962C58.8939 7.86192 60.182 8.6077 60.7853 10.0702C61.9185 8.71654 63.3401 7.86829 65.0238 7.87033C67.4178 7.87364 68.8361 9.49674 68.8326 12.1541L68.8213 20.6315L64.77 20.6259L64.7798 13.3444Z" fill="#04070D"/>
<path fill-rule="evenodd" clip-rule="evenodd" d="M71.2059 7.84892L75.4265 7.84692L75.4089 20.1403L71.1883 20.1348L71.2059 7.84892ZM73.3183 6.27299C71.7834 6.27099 70.8255 5.5127 70.8276 4.12884C70.8295 2.69265 71.7897 1.96291 73.3246 1.96491C74.8868 1.96691 75.8176 2.69941 75.8155 4.1351C75.8134 5.51921 74.8805 6.27499 73.3183 6.27299Z" fill="#04070D"/>
<path fill-rule="evenodd" clip-rule="evenodd" d="M81.6093 20.6315C79.8885 20.6293 77.6306 20.2653 76.3145 19.5666L77.1249 16.7035C78.6028 17.4279 80.2155 17.8429 81.6938 17.8449C82.8236 17.8464 83.3883 17.5116 83.3893 16.8664C83.3901 16.1697 82.6915 15.9366 81.2671 15.6253C78.3642 15.0539 76.5104 14.0451 76.5135 11.6968C76.5169 9.45216 78.5625 7.85493 82.0311 7.85963C83.698 7.86161 85.8749 8.3291 87.1111 8.8983L86.2736 11.7356C84.8494 11.0368 83.1562 10.6477 81.9731 10.6462C80.9512 10.6448 80.4403 10.9539 80.4396 11.5473C80.4385 12.1922 81.2176 12.4514 82.5886 12.7372C85.5186 13.3599 87.2914 14.2914 87.2878 16.6912C87.2849 18.8586 85.2929 20.6365 81.6093 20.6315Z" fill="#04070D"/>
<path fill-rule="evenodd" clip-rule="evenodd" d="M96.2346 12.9457C96.2369 11.5115 95.6277 10.6659 94.3542 10.6642C92.9479 10.6622 92.0969 11.8392 91.9626 13.1962L96.2343 13.1761L96.2346 12.9457ZM95.193 17.7332C96.5466 17.7349 97.9799 17.2761 99.2281 16.5859L99.6218 19.634C98.3735 20.2471 96.6219 20.6032 94.8176 20.6007C90.652 20.5953 87.9221 18.3639 87.9277 14.369C87.9333 10.4763 90.6963 7.94498 94.6232 7.9499C98.1259 7.95456 100.034 9.98014 100.029 12.9508C100.028 13.5909 99.9475 14.5382 99.7607 15.0501L91.9333 15.168V15.2193C92.0636 16.8325 93.1767 17.7305 95.193 17.7332Z" fill="#04070D"/>
<path d="M23.8109 4.1211C18.4082 -1.30143 9.64608 -1.30143 4.24341 4.1211C-1.15926 9.54364 -1.15926 18.338 4.24341 23.7605C9.64608 29.1831 18.4082 29.1831 23.8109 23.7605C29.2136 18.338 29.2136 9.54364 23.8109 4.1211ZM21.6498 14.276L14.3415 21.5915C14.1647 21.769 13.8896 21.769 13.7128 21.5915L6.40448 14.2563C6.22766 14.0788 6.22766 13.8028 6.40448 13.6253L13.7128 6.29011C13.8896 6.11265 14.1647 6.11265 14.3415 6.29011L21.6695 13.645C21.807 13.8225 21.807 14.0986 21.6498 14.276Z" fill="#2176FF"/>
<path d="M27.858 13.9606C27.858 10.1352 26.3256 6.64507 23.8109 4.14084C21.6301 1.93239 18.0742 1.91267 15.8738 4.10141L13.7324 6.27042C13.811 6.19155 13.9092 6.15211 14.0271 6.15211C14.1646 6.15211 14.2629 6.21127 14.3415 6.29014C14.3807 6.32958 23.8109 15.7944 23.8109 15.7944C25.9916 18.0028 25.9916 21.5718 23.8109 23.7606C26.3059 21.2563 27.858 17.7859 27.858 13.9606Z" fill="#1A53F0"/>
<path d="M4.24344 23.7408C6.4438 25.9492 9.99974 25.9492 12.2001 23.7605C12.2001 23.7605 13.0842 22.8338 14.3415 21.5915C14.2629 21.6704 14.1647 21.7295 14.0272 21.7295C13.8897 21.7295 13.7914 21.6704 13.7129 21.5915L6.42416 14.276C6.34557 14.1971 6.26699 14.0985 6.26699 13.9408C6.26699 13.7831 6.34557 13.6845 6.40451 13.6253L4.26309 15.7352C2.06273 17.9239 2.06273 21.5323 4.24344 23.7408Z" fill="#1A53F0"/>
</svg>
